<svg id="Layer_1" data-name="Layer 1" xmlns="http://www.w3.org/2000/svg" viewBox="0 0 21.647 29.334"><path d="M32.4,28.232a4.167,4.167,0,0,0-.3-.306,5.5,5.5,0,0,0-.62-.486c-.1-.067-.2-.132-.3-.194a.158.158,0,0,0-.219.02c-.126.124-.258.243-.383.37-.248.253-.436.558-.694.8-.135.128-.129.2.011.327s.277.24.422.352.3.23.456.347l.039.029a1.616,1.616,0,0,0,.337.248.178.178,0,0,0,.238-.059l.086-.1q.473-.555.944-1.109C32.506,28.37,32.512,28.354,32.4,28.232Z" transform="translate(-14.193 -7.228)" fill="none"/><path d="M30.185,29.694l-.233-.178a12.766,12.766,0,0,1-2.576,2.091,10.291,10.291,0,0,1-2.022.956l-.279.327-.241.283-.027.032c.038.03.073.059.109.089l.034.027a10.69,10.69,0,0,0,2.389-.982l-.151.037A12.362,12.362,0,0,0,28.832,31.3a13.823,13.823,0,0,0,1.556-1.411.794.794,0,0,0-.24-.154C30.16,29.721,30.172,29.707,30.185,29.694Z" transform="translate(-14.193 -7.228)" fill="none"/><path d="M20.1,24.409c.006.009.034.092.05.038a8.035,8.035,0,0,1,1.6-2.92c.061-.4.134-.8.212-1.189a8.113,8.113,0,0,0-1.926,3.288,1.32,1.32,0,0,0,.013.531A.654.654,0,0,0,20.1,24.409Z" transform="translate(-14.193 -7.228)" fill="none"/><path d="M31.173,31.723l.1.014-.1-.014Z" transform="translate(-14.193 -7.228)" fill="none"/><path d="M23.014,18.076c-.11.464-.226.96-.338,1.469l-.035.156-.029.138c-.071.331-.139.665-.2,1-.479,2.587-.606,5.155,1.034,5.56,2.152.53,2.914-2.96,3.111-4.262.021-.14-.061-.248-.138-.238-.12.016-.178.2-.209.327-.122.5-.636,2.027-2.048,1.62-1.173-.338-1-2.043-.615-3.893l0-.021.015-.07.144-.694.092-.444c.255-1.224.37-1.781.454-2.158l-.077.094C23.794,17.133,23.4,17.6,23.014,18.076Z" transform="translate(-14.193 -7.228)" fill="none"/><path d="M22.589,34.736c.285.268.608.49.917.729a1.59,1.59,0,0,0,.337.248.179.179,0,0,0,.238-.06l.086-.1q.471-.555.944-1.109c.088-.1.094-.119-.015-.241a4.8,4.8,0,0,0-.817-.718l-.051-.037c-.075-.052-.151-.1-.228-.152a.263.263,0,0,0,.081-.065l.086-.1.019-.023.241-.283c.228-.268.455-.536.684-.8.088-.1.094-.119-.015-.241a5.4,5.4,0,0,0-1.222-.986.158.158,0,0,0-.219.02c-.127.124-.259.243-.383.37-.248.253-.437.558-.695.8-.134.129-.128.195.012.327a10.386,10.386,0,0,0,.832.664l.085.065c.064.049.124.107.193.159a.2.2,0,0,0-.044.035c-.111.108-.224.213-.334.322l-.049.047-.028.031c-.235.247-.419.537-.667.774C22.443,34.538,22.449,34.6,22.589,34.736Z" transform="translate(-14.193 -7.228)" fill="none"/><path d="M25.544,29.513a8.4,8.4,0,0,0,2.243-1.882c.1-.116.158-.186.158-.186h0c.081-.1.158-.194.232-.288h0v0c.252-.323.456-.617.607-.848A13.783,13.783,0,0,1,32.7,22.622a6.441,6.441,0,0,1-.023,1.7,7.705,7.705,0,0,1-.918,2.653,6.322,6.322,0,0,1,.614.469,7.66,7.66,0,0,0,.8-5.033,4.782,4.782,0,0,1,1.555-.265v0h0l.216-1.753a15.012,15.012,0,0,1-2.427.21,5.63,5.63,0,0,0-5.672-2.936,7.219,7.219,0,0,0-2.427.716l-.07.334c-.048.233-.1.492-.162.779a6.306,6.306,0,0,1,5.852-.627,4.627,4.627,0,0,1,1.384.966,4.451,4.451,0,0,1,.5.605l.017.026.05.079c.015.023.028.046.042.069-.673.01-1.472,0-2.409-.034-2.907-.114-2.229,3.469-2.229,3.469l.165-.07A1.387,1.387,0,0,1,28.763,22.4a15.254,15.254,0,0,1,1.777-.05A11.582,11.582,0,0,0,28.3,24.954c-1.069,1.353-2.854,3.064-5.062,3.073-3.2.012-3.2-2.411-3.151-3.014a.663.663,0,0,1-.169-.122,4.413,4.413,0,0,0,1.484,4.665c.055.04.111.078.167.114l.011.03c.04.019.079.035.119.052A3.675,3.675,0,0,0,25.544,29.513Z" transform="translate(-14.193 -7.228)" fill="none"/><path d="M25.691,9.831l-.186-.14.182.141Z" transform="translate(-14.193 -7.228)" fill="none"/><path d="M18,35.07c4.076,2.819,9.981,1.515,13.954-2.815l0,.013.185-.218c.228-.268.456-.537.686-.8a.9.9,0,0,0,.146-.231q.144-.194.283-.393c3.876-5.6,3.329-12.7-1.221-15.846a8.376,8.376,0,0,0-3.6-1.4c-.64-.019-1.28-.027-1.921-.028a.613.613,0,0,0-.121.012l.007-.051-.025,0L24.752,14.9a54.269,54.269,0,0,0-5,5.189,12.541,12.541,0,0,0-2.216,4.135,10.84,10.84,0,0,0-.282,2.4c0,.142,0,.284.01.424v.016a7.576,7.576,0,0,0,.623,2.752,5.36,5.36,0,0,0,1.871,2.275,5.149,5.149,0,0,0,1.465.688,5.767,5.767,0,0,0,1.328.216c.064.052.129.1.194.151.042.033.085.065.128.1-.105.108-.2.219-.284.328l-.063.079-.014.017a6.072,6.072,0,0,1-5.423-3.331c-3.437-5.927,2.732-12.988,2.991-13.28l0,0c.074-.087.147-.175.222-.262.436-.505.893-.991,1.356-1.463.366-.372.734-.74,1.1-1.108,1.012-1.006,2.038-2,3.063-2.993h0l2.282-2.118a.41.41,0,0,0-.008-.609l-.4-.357h0a6.73,6.73,0,0,0-.53-.438c-.206-.153-.421-.3-.641-.432a.2.2,0,0,0-.277.026c-.16.157-.327.307-.484.467-.314.32-.552.706-.877,1.016-.171.162-.163.247.014.413.118.11.241.214.366.314l.233.183.186.14h0l.624.488L25.447,10a48.362,48.362,0,0,0-8.259,8.655h0c-.14.185-.278.373-.411.566C12.9,24.828,13.448,31.923,18,35.07ZM28.832,31.3a12.362,12.362,0,0,1-1.644,1.077l.151-.037a10.69,10.69,0,0,1-2.389.982l-.034-.027c-.036-.03-.071-.059-.109-.089l.027-.032.241-.283.279-.327a10.291,10.291,0,0,0,2.022-.956,12.766,12.766,0,0,0,2.576-2.091l.233.178c-.013.013-.025.027-.037.04a.794.794,0,0,1,.24.154A13.823,13.823,0,0,1,28.832,31.3Zm2.442.438-.1-.014h0Zm.2-2.155-.086.1a.178.178,0,0,1-.238.059,1.616,1.616,0,0,1-.337-.248l-.039-.029c-.151-.117-.3-.23-.456-.347s-.288-.227-.422-.352-.146-.2-.011-.327c.258-.246.446-.551.694-.8.125-.127.257-.246.383-.37a.158.158,0,0,1,.219-.02c.1.062.2.127.3.194a5.5,5.5,0,0,1,.62.486,4.167,4.167,0,0,1,.3.306c.109.122.1.138.015.241Q31.946,29.027,31.474,29.582ZM23.8,18.724l-.092.444-.144.694-.015.07,0,.021c-.38,1.85-.558,3.555.615,3.893,1.412.407,1.926-1.116,2.048-1.62.031-.126.089-.311.209-.327.077-.01.159.1.138.238-.2,1.3-.959,4.792-3.111,4.262-1.64-.405-1.513-2.973-1.034-5.56.062-.335.13-.669.2-1l.029-.138.035-.156c.112-.509.228-1.005.338-1.469.389-.473.78-.943,1.164-1.416l.077-.094C24.171,16.943,24.056,17.5,23.8,18.724Zm-3.766,4.9a8.113,8.113,0,0,1,1.926-3.288c-.078.394-.151.793-.212,1.189a8.035,8.035,0,0,0-1.6,2.92c-.016.054-.044-.029-.05-.038a.654.654,0,0,1-.055-.252A1.32,1.32,0,0,1,20.035,23.626ZM21.583,29.7l-.011-.03c-.056-.036-.112-.074-.167-.114a4.413,4.413,0,0,1-1.484-4.665.663.663,0,0,0,.169.122c-.049.6-.049,3.026,3.151,3.014,2.208-.009,3.993-1.72,5.062-3.073a11.582,11.582,0,0,1,2.237-2.605,15.254,15.254,0,0,0-1.777.05,1.387,1.387,0,0,0-1.206,1.582l-.165.07s-.678-3.583,2.229-3.469c.937.037,1.736.044,2.409.034-.014-.023-.027-.046-.042-.069l-.05-.079-.017-.026a4.451,4.451,0,0,0-.5-.605,4.627,4.627,0,0,0-1.384-.966,6.306,6.306,0,0,0-5.852.627c.06-.287.114-.546.162-.779l.07-.334a7.219,7.219,0,0,1,2.427-.716,5.63,5.63,0,0,1,5.672,2.936,15.012,15.012,0,0,0,2.427-.21l-.216,1.753h0v0a4.782,4.782,0,0,0-1.555.265,7.66,7.66,0,0,1-.8,5.033,6.322,6.322,0,0,0-.614-.469,7.705,7.705,0,0,0,.918-2.653,6.441,6.441,0,0,0,.023-1.7,13.783,13.783,0,0,0-3.914,3.686c-.151.231-.355.525-.607.848v0h0c-.074.094-.151.19-.232.288h0s-.056.07-.158.186a8.4,8.4,0,0,1-2.243,1.882,3.675,3.675,0,0,1-3.842.239C21.662,29.735,21.623,29.719,21.583,29.7Zm.994,4.71c.248-.237.432-.527.667-.774l.028-.031.049-.047c.11-.109.223-.214.334-.322A.2.2,0,0,1,23.7,33.2c-.069-.052-.129-.11-.193-.159l-.085-.065a10.386,10.386,0,0,1-.832-.664c-.14-.132-.146-.2-.012-.327.258-.246.447-.551.695-.8.124-.127.256-.246.383-.37a.158.158,0,0,1,.219-.02,5.4,5.4,0,0,1,1.222.986c.109.122.1.139.015.241-.229.268-.456.536-.684.8l-.241.283-.019.023-.086.1A.263.263,0,0,1,24,33.3c.077.05.153.1.228.152l.051.037a4.8,4.8,0,0,1,.817.718c.109.122.1.138.015.241q-.474.553-.944,1.109l-.086.1a.179.179,0,0,1-.238.06,1.59,1.59,0,0,1-.337-.248c-.309-.239-.632-.461-.917-.729C22.449,34.6,22.443,34.538,22.577,34.41Z" transform="translate(-14.193 -7.228)" fill="#fff"/></svg>