<?xml version="1.0" encoding="UTF-8"?>
<!DOCTYPE svg PUBLIC "-//W3C//DTD SVG 1.1//EN" "http://www.w3.org/Graphics/SVG/1.1/DTD/svg11.dtd">
<svg xmlns="http://www.w3.org/2000/svg" version="1.1" width="686px" height="176px" style="shape-rendering:geometricPrecision; text-rendering:geometricPrecision; image-rendering:optimizeQuality; fill-rule:evenodd; clip-rule:evenodd" xmlns:xlink="http://www.w3.org/1999/xlink">
<g><path style="opacity:0.995" fill="#ffbd76" d="M -0.5,-0.5 C 11.5,-0.5 23.5,-0.5 35.5,-0.5C 86.3961,2.45112 131.063,20.6178 169.5,54C 186.776,68.939 202.276,85.439 216,103.5C 261.927,153.695 318.094,170.861 384.5,155C 414.388,146.087 439.888,130.254 461,107.5C 485.571,73.2542 516.071,45.7542 552.5,25C 582.874,9.90816 614.874,1.40816 648.5,-0.5C 660.833,-0.5 673.167,-0.5 685.5,-0.5C 685.5,58.1667 685.5,116.833 685.5,175.5C 456.833,175.5 228.167,175.5 -0.5,175.5C -0.5,116.833 -0.5,58.1667 -0.5,-0.5 Z"/></g>
</svg>
