<svg xmlns="http://www.w3.org/2000/svg" width="599" height="1290" viewBox="0 0 599 1290" fill="none">
<g clip-path="url(#clip0_693_1261)">
<g opacity="0.8">
<g opacity="0.5">
<path d="M408.139 653.867C390.698 603.998 370.803 542.824 379.305 496.637C408.226 339.231 590.698 364.387 591.136 364.472C590.847 364.417 590.554 364.388 590.26 364.384" stroke="#ffbd76" stroke-linecap="round" stroke-linejoin="round"/>
<path d="M442.231 833.884C442.397 802.131 439.521 770.435 433.642 739.23" stroke="#ffbd76" stroke-linecap="round" stroke-linejoin="round"/>
<path d="M527.332 251.851C453.975 260.615 380.443 302.333 349.418 329.677C310.593 363.858 281.934 409.519 264.142 465.348C241.267 537.302 270.452 620.913 293.942 688.048C303.142 714.253 311.733 739.056 315.502 758.6C334.436 860.311 313.266 965.403 256.43 1051.85C221.286 1105.4 172.907 1152.03 112.43 1190.41C44.0689 1233.88 -40.331 1267.01 -138.227 1289.01" stroke="#ffbd76" stroke-linecap="round" stroke-linejoin="round"/>
<path d="M388.857 374.288C390.697 372.535 392.538 370.87 394.466 369.205C419.181 347.47 449.33 331.343 484.124 321.352C544.424 304.086 597.446 311.098 597.971 311.185" stroke="#ffbd76" stroke-linecap="round" stroke-linejoin="round"/>
<path d="M270.83 0.721924C190.38 26.3929 123.003 83.9619 97.9361 108.414C73.1361 132.603 50.7361 162.982 33.6431 193.131C16.4361 223.493 3.85274 256.252 -3.69189 290.326" stroke="#ffbd76" stroke-linecap="round" stroke-linejoin="round"/>
<path d="M425.843 4.96191C371.473 13.8168 318.775 30.9293 269.576 55.7069C222.061 79.6275 178.494 110.692 140.395 147.819C102.761 184.422 71.1156 226.715 46.618 273.148C21.7988 320.272 4.8349 371.13 -3.60498 423.717" stroke="#ffbd76" stroke-linecap="round" stroke-linejoin="round"/>
<path d="M521.511 49.7889C521.511 49.7889 213.397 25.2069 83.6871 321.877C-11.4049 539.318 58.7091 670.606 72.2941 755.707C88.2451 855.707 128.21 1033.53 -183.359 1071.13" stroke="#ffbd76" stroke-linecap="round" stroke-linejoin="round"/>
<path d="M94.9932 567.013C98.2312 610.133 107.708 652.556 123.127 692.955" stroke="#ffbd76" stroke-linecap="round" stroke-linejoin="round"/>
<path d="M541.578 97.2919C509.891 93.2769 495.168 99.0919 449.594 108.117C404.371 117.056 360.812 131.43 321.285 150.624C281.758 169.818 246.176 194.006 216.905 222.578C187.512 251.49 162.898 284.889 143.986 321.526C124.696 358.782 110.797 398.59 102.706 439.756" stroke="#ffbd76" stroke-linecap="round" stroke-linejoin="round"/>
<path d="M507.087 431.956C492.187 436.776 478.165 445.015 465.106 457.723C452.222 470.255 443.806 483.49 438.901 497.337C433.996 511.184 432.416 525.737 433.201 540.807C433.986 555.877 437.145 571.657 441.615 588.046C446.085 604.435 451.781 621.346 457.653 638.967C464.84 660.267 472.202 682.262 478.161 705.049C484.12 727.836 488.415 751.499 489.554 776.039" stroke="#ffbd76" stroke-linecap="round" stroke-linejoin="round"/>
<path d="M378.954 907.855C387.894 855.182 387.543 800.143 377.727 748.872C373.257 725.56 363.967 699.003 354.151 670.958C333.204 611.011 294.028 522.842 341.268 439.933" stroke="#ffbd76" stroke-linecap="round" stroke-linejoin="round"/>
<path d="M81.4949 1145.54C18.6549 1185.42 -59.5221 1216.09 -150.933 1236.6" stroke="#ffbd76" stroke-linecap="round" stroke-linejoin="round"/>
<path d="M261.25 890.589C253.179 937.949 235.395 983.126 209.015 1023.28" stroke="#ffbd76" stroke-linecap="round" stroke-linejoin="round"/>
<path d="M402.617 231.868C291.487 275.514 181.583 372.709 206.561 588.31C211.469 630.817 228.561 670.08 240.742 705.05" stroke="#ffbd76" stroke-linecap="round" stroke-linejoin="round"/>
<path d="M161.514 994.621C134.959 1035.2 97.623 1070.87 50.559 1100.76C-6.67104 1137.13 -78.801 1165.17 -163.727 1184.28" stroke="#ffbd76" stroke-linecap="round" stroke-linejoin="round"/>
<path d="M150.822 594.182C153.013 656.145 230.752 776.04 205.861 881.824" stroke="#ffbd76" stroke-linecap="round" stroke-linejoin="round"/>
<path d="M551.991 144.134C542.175 142.734 551.346 141.246 485.176 153.165C444.422 160.527 406.298 171.565 371.592 186.031C327.069 204.611 288.332 228.976 256.43 258.336C215.989 295.435 185.546 342.124 167.911 394.094" stroke="#ffbd76" stroke-linecap="round" stroke-linejoin="round"/>
<path d="M114.01 966.049C91.7493 1000.05 59.9352 1030.29 19.5322 1055.97" stroke="#ffbd76" stroke-linecap="round" stroke-linejoin="round"/>
<path d="M246.452 128.922C248.428 128.745 249.886 126.999 249.709 125.023C249.532 123.046 247.785 121.588 245.809 121.765C243.833 121.943 242.374 123.689 242.552 125.665C242.729 127.642 244.475 129.1 246.452 128.922Z" fill="#ffbd76"/>
<path d="M225.206 143.594C227.182 143.416 228.64 141.67 228.463 139.694C228.285 137.718 226.539 136.259 224.563 136.437C222.587 136.614 221.128 138.36 221.306 140.336C221.483 142.313 223.229 143.771 225.206 143.594Z" fill="#ffbd76"/>
<path d="M235.738 135.724C237.714 135.546 239.173 133.8 238.995 131.824C238.818 129.847 237.072 128.389 235.095 128.566C233.119 128.744 231.66 130.49 231.838 132.466C232.015 134.443 233.761 135.901 235.738 135.724Z" fill="#ffbd76"/>
<path d="M62.9509 380.422C64.9353 380.422 66.5439 378.813 66.5439 376.829C66.5439 374.845 64.9353 373.236 62.9509 373.236C60.9666 373.236 59.3579 374.845 59.3579 376.829C59.3579 378.813 60.9666 380.422 62.9509 380.422Z" fill="#ffbd76"/>
<path d="M55.0632 404.348C57.0476 404.348 58.6562 402.739 58.6562 400.755C58.6562 398.771 57.0476 397.162 55.0632 397.162C53.0789 397.162 51.4702 398.771 51.4702 400.755C51.4702 402.739 53.0789 404.348 55.0632 404.348Z" fill="#ffbd76"/>
<path d="M58.656 392.078C60.6403 392.078 62.249 390.469 62.249 388.485C62.249 386.501 60.6403 384.892 58.656 384.892C56.6716 384.892 55.063 386.501 55.063 388.485C55.063 390.469 56.6716 392.078 58.656 392.078Z" fill="#ffbd76"/>
<path d="M256.067 262.355C255.462 260.465 253.476 259.411 251.632 260.002C249.788 260.592 248.784 262.603 249.389 264.494C249.995 266.384 251.98 267.438 253.824 266.847C255.668 266.257 256.673 264.246 256.067 262.355Z" fill="#ffbd76"/>
<path d="M238.158 279.662C237.553 277.772 235.567 276.718 233.723 277.309C231.879 277.899 230.875 279.91 231.481 281.801C232.086 283.691 234.072 284.745 235.916 284.154C237.76 283.564 238.764 281.552 238.158 279.662Z" fill="#ffbd76"/>
<path d="M246.989 270.58C246.383 268.69 244.398 267.636 242.554 268.227C240.709 268.817 239.705 270.828 240.311 272.719C240.916 274.609 242.902 275.663 244.746 275.072C246.59 274.482 247.594 272.47 246.989 270.58Z" fill="#ffbd76"/>
<path d="M397.406 448.733C396.105 447.235 393.865 447.051 392.403 448.321C390.942 449.592 390.813 451.836 392.114 453.333C393.416 454.831 395.656 455.015 397.118 453.745C398.579 452.474 398.708 450.231 397.406 448.733Z" fill="#ffbd76"/>
<path d="M387.555 471.645C386.253 470.148 384.013 469.963 382.552 471.234C381.09 472.504 380.961 474.748 382.263 476.246C383.565 477.743 385.805 477.927 387.266 476.657C388.727 475.387 388.857 473.143 387.555 471.645Z" fill="#ffbd76"/>
<path d="M392.146 459.772C390.844 458.274 388.604 458.09 387.143 459.36C385.681 460.63 385.552 462.874 386.854 464.372C388.156 465.87 390.396 466.054 391.857 464.783C393.318 463.513 393.448 461.269 392.146 459.772Z" fill="#ffbd76"/>
<path d="M394.347 604.374C392.393 604.029 390.536 605.295 390.199 607.201C389.862 609.108 391.173 610.934 393.127 611.279C395.081 611.624 396.938 610.359 397.275 608.452C397.612 606.545 396.301 604.719 394.347 604.374Z" fill="#ffbd76"/>
<path d="M401.449 628.204C399.495 627.859 397.638 629.125 397.301 631.031C396.964 632.938 398.275 634.764 400.229 635.109C402.183 635.454 404.041 634.189 404.378 632.282C404.714 630.375 403.404 628.549 401.449 628.204Z" fill="#ffbd76"/>
<path d="M397.414 616.203C395.46 615.858 393.603 617.124 393.266 619.031C392.929 620.938 394.24 622.763 396.194 623.108C398.148 623.454 400.006 622.188 400.342 620.281C400.679 618.374 399.368 616.549 397.414 616.203Z" fill="#ffbd76"/>
<path d="M65.9822 726.61C67.9665 726.61 69.5752 725.001 69.5752 723.017C69.5752 721.033 67.9665 719.424 65.9822 719.424C63.9978 719.424 62.3892 721.033 62.3892 723.017C62.3892 725.001 63.9978 726.61 65.9822 726.61Z" fill="#ffbd76"/>
<path d="M59.76 699.878C61.7444 699.878 63.353 698.269 63.353 696.285C63.353 694.301 61.7444 692.692 59.76 692.692C57.7756 692.692 56.167 694.301 56.167 696.285C56.167 698.269 57.7756 699.878 59.76 699.878Z" fill="#ffbd76"/>
<path d="M62.8269 713.2C64.8112 713.2 66.4199 711.591 66.4199 709.607C66.4199 707.623 64.8112 706.014 62.8269 706.014C60.8425 706.014 59.2339 707.623 59.2339 709.607C59.2339 711.591 60.8425 713.2 62.8269 713.2Z" fill="#ffbd76"/>
<path d="M269.322 597.158C268.629 595.299 266.561 594.352 264.701 595.045C262.841 595.737 261.895 597.806 262.587 599.666C263.28 601.525 265.348 602.472 267.208 601.779C269.068 601.087 270.014 599.018 269.322 597.158Z" fill="#ffbd76"/>
<path d="M263.826 570.252C263.133 568.392 261.065 567.446 259.205 568.138C257.345 568.831 256.399 570.899 257.091 572.759C257.783 574.619 259.852 575.565 261.712 574.873C263.572 574.18 264.518 572.112 263.826 570.252Z" fill="#ffbd76"/>
<path d="M266.223 583.795C265.53 581.935 263.462 580.989 261.602 581.681C259.742 582.374 258.796 584.442 259.488 586.302C260.18 588.162 262.249 589.108 264.109 588.416C265.969 587.723 266.915 585.655 266.223 583.795Z" fill="#ffbd76"/>
<path d="M302.839 956.096C300.883 955.765 299.028 957.083 298.697 959.039C298.366 960.996 299.684 962.85 301.64 963.181C303.597 963.512 305.451 962.194 305.782 960.238C306.113 958.281 304.796 956.427 302.839 956.096Z" fill="#ffbd76"/>
<path d="M310.285 929.713C308.328 929.382 306.474 930.7 306.143 932.657C305.812 934.613 307.13 936.468 309.086 936.799C311.043 937.13 312.897 935.812 313.228 933.855C313.559 931.899 312.241 930.044 310.285 929.713Z" fill="#ffbd76"/>
<path d="M306.251 942.859C304.294 942.528 302.44 943.845 302.109 945.802C301.778 947.758 303.096 949.613 305.052 949.944C307.009 950.275 308.863 948.957 309.194 947C309.525 945.044 308.207 943.189 306.251 942.859Z" fill="#ffbd76"/>
<path d="M63.39 1218.87C63.3185 1216.88 61.6526 1215.33 59.669 1215.4C57.6854 1215.48 56.1352 1217.14 56.2066 1219.13C56.278 1221.11 57.944 1222.66 59.9276 1222.59C61.9112 1222.52 63.4614 1220.85 63.39 1218.87Z" fill="#ffbd76"/>
<path d="M88.2528 1207.04C88.1813 1205.06 86.5154 1203.51 84.5318 1203.58C82.5481 1203.65 80.998 1205.32 81.0694 1207.3C81.1408 1209.28 82.8068 1210.83 84.7904 1210.76C86.774 1210.69 88.3242 1209.03 88.2528 1207.04Z" fill="#ffbd76"/>
<path d="M75.6634 1212.65C75.592 1210.67 73.926 1209.12 71.9424 1209.19C69.9588 1209.26 68.4086 1210.93 68.4801 1212.91C68.5515 1214.89 70.2174 1216.44 72.201 1216.37C74.1847 1216.3 75.7348 1214.64 75.6634 1212.65Z" fill="#ffbd76"/>
<path d="M339.161 335.415C337.286 334.765 335.252 335.72 334.617 337.549C333.982 339.379 334.987 341.389 336.862 342.04C338.737 342.69 340.771 341.735 341.406 339.906C342.041 338.076 341.036 336.066 339.161 335.415Z" fill="#ffbd76"/>
<path d="M360.719 318.674C358.844 318.023 356.81 318.979 356.175 320.808C355.54 322.638 356.545 324.648 358.42 325.298C360.295 325.949 362.329 324.994 362.964 323.164C363.599 321.335 362.594 319.325 360.719 318.674Z" fill="#ffbd76"/>
<path d="M349.759 326.833C347.885 326.183 345.85 327.138 345.215 328.967C344.58 330.797 345.585 332.807 347.46 333.458C349.335 334.108 351.369 333.153 352.004 331.324C352.639 329.494 351.634 327.484 349.759 326.833Z" fill="#ffbd76"/>
</g>


</g>













</g>
<defs>
<linearGradient id="paint0_linear_693_1261" x1="4.09807" y1="994.147" x2="34.0468" y2="1025.07" gradientUnits="userSpaceOnUse">
<stop stop-color="#D11212"/>
<stop offset="1" stop-color="#7D110B"/>
</linearGradient>
<linearGradient id="paint1_linear_693_1261" x1="206.628" y1="208.993" x2="134.832" y2="139.708" gradientUnits="userSpaceOnUse">
<stop stop-color="#500FEF"/>
<stop offset="1" stop-color="#26C4B2"/>
</linearGradient>
<linearGradient id="paint2_linear_693_1261" x1="280.726" y1="508.692" x2="241.132" y2="485.589" gradientUnits="userSpaceOnUse">
<stop stop-color="#FF9400"/>
<stop offset="1" stop-color="#FFBB21"/>
</linearGradient>
<linearGradient id="paint3_linear_693_1261" x1="-2031.35" y1="5094.32" x2="-2029.8" y2="5091.27" gradientUnits="userSpaceOnUse">
<stop stop-color="#171C30"/>
<stop offset="1" stop-color="#5A63B8"/>
</linearGradient>
<linearGradient id="paint4_linear_693_1261" x1="24.0037" y1="407.32" x2="77.04" y2="464.734" gradientUnits="userSpaceOnUse">
<stop stop-color="white"/>
<stop offset="1" stop-color="#777777"/>
</linearGradient>
<linearGradient id="paint5_linear_693_1261" x1="300" y1="745" x2="331.05" y2="772.48" gradientUnits="userSpaceOnUse">
<stop stop-color="#12CEF7"/>
<stop offset="1" stop-color="#5766F2"/>
</linearGradient>
<clipPath id="clip0_693_1261">
<rect width="599" height="1290" fill="white"/>
</clipPath>
<clipPath id="clip1_693_1261">
<rect width="64" height="64" fill="white" transform="translate(242 1007)"/>
</clipPath>
</defs>
</svg>